<svg width="327.19530029296874" height="87.28262129695912" viewBox="0 0 370 98.70120338207337">
    <defs id="SvgjsDefs2011">
        <linearGradient id="SvgjsLinearGradient2016">
            <stop id="SvgjsStop2017" stop-color="#616161" offset="0"></stop>
            <stop id="SvgjsStop2018" stop-color="#e6e7e8" offset="0.5"></stop>
            <stop id="SvgjsStop2019" stop-color="#616161" offset="1"></stop>
        </linearGradient>
        <linearGradient id="SvgjsLinearGradient2020">
            <stop id="SvgjsStop2021" stop-color="#616161" offset="0"></stop>
            <stop id="SvgjsStop2022" stop-color="#e6e7e8" offset="0.5"></stop>
            <stop id="SvgjsStop2023" stop-color="#616161" offset="1"></stop>
        </linearGradient>
    </defs>
    <g id="SvgjsG2012" featurekey="symbolFeature-0" transform="matrix(0.4310096217557789,0,0,0.4310096217557789,0.005767752659298982,0)" fill="url(#SvgjsLinearGradient2016)">
        <defs xmlns="http://www.w3.org/2000/svg"></defs>
        <g xmlns="http://www.w3.org/2000/svg">
            <path class="fil0" d="M11 113l-7 -2 0 -8 6 -2c3,-10 3,-21 0,-31l-6 -3 0 -8 125 -59 80 65c13,11 23,48 1,52 -4,0 -13,4 -30,6l22 10 0 6 -9 2c-2,9 -3,17 -2,26l41 8 0 6 -5 1c-4,10 -4,24 0,34l5 0 0 5 -72 8 -128 -8c-24,-2 -30,-36 -6,-48 -8,0 -14,0 -16,-2 -14,-10 -13,-48 1,-58zm9 55l78 -9c-8,-18 -6,-39 0,-57l-82 18c-15,3 -12,49 4,48zm141 54l63 -5c-4,-11 -3,-26 0,-37l-61 -9c-31,-5 -34,55 -2,51zm-61 -63l24 4c16,-2 27,-4 33,-3l32 6c-1,-10 0,-18 3,-28l-92 -36c-6,18 -8,39 0,57zm-89 -93c4,12 5,22 1,34l114 -37c5,-14 3,-33 0,-47l-115 50zm118 -50c3,14 5,33 0,47 10,7 71,47 78,47 13,0 8,-30 0,-36l-78 -58z" style="fill: url(#SvgjsLinearGradient2016); fill-rule: nonzero;"></path>
        </g>
    </g>
    <g id="SvgjsG2013" featurekey="nameFeature-0" transform="matrix(2.760600781136793,0,0,2.760600781136793,114.47880107044048,-16.98056435701119)" fill="url(#SvgjsLinearGradient2020)">
        <path d="M2 40 l0 -32 l6.08 0 c4.12 0 5.48 2.56 5.48 7.16 l0 0.84 c0 2.76 -0.64 4.92 -1.36 6.48 l0 0.16 c1.48 1.24 2.4 3.68 2.6 7.92 l0 1.28 c-0.32 5.64 -1.8 8.16 -5.92 8.16 l-6.88 0 z M6 21.6 l2.08 0 c1.12 0 1.92 -1.32 1.92 -5.6 l0 -0.84 c0 -3.08 -0.72 -3.96 -1.92 -3.96 l-2.08 0 l0 10.4 z M6 36 l2.88 0 c1.2 0 2.04 -1 2.2 -4.16 l0 -1.28 c-0.16 -4.76 -1 -5.76 -2.2 -5.76 l-2.88 0 l0 11.2 z M17.2 23.16 c0 -11.16 0.24 -15.56 6.24 -15.56 s6.24 4.4 6.24 15.56 c0 12.8 -0.24 17.24 -6.24 17.24 s-6.24 -4.44 -6.24 -17.24 z M21.2 23.16 c0 11.56 0 13.24 2.24 13.24 s2.24 -1.68 2.24 -13.24 c0 -10.4 0 -12.36 -2.24 -12.36 s-2.24 1.96 -2.24 12.36 z M32.88 23.16 c0 -11.16 0.24 -15.56 6.24 -15.56 s6.24 4.4 6.24 15.56 c0 12.8 -0.24 17.24 -6.24 17.24 s-6.24 -4.44 -6.24 -17.24 z M36.88 23.16 c0 11.56 0 13.24 2.24 13.24 s2.24 -1.68 2.24 -13.24 c0 -10.4 0 -12.36 -2.24 -12.36 s-2.24 1.96 -2.24 12.36 z M48.96 40 l0 -32 l4 0 l0 12.68 l4 -12.68 l4 0 l-4.8 15.2 l4.8 16.8 l-4 0 l-4 -14 l0 14 l-4 0 z M63.36 40 l0 -32 l3.6 0 l4.2 20 l0.4 0 l4.2 -20 l3.6 0 l0 32 l-4 0 l0 -16 l-2.84 16 l-2.4 0 l-2.76 -16 l0 16 l-4 0 z M83.36 40 l0 -32 l9.2 0 l0 3.2 l-5.2 0 l0 10.4 l4.4 0 l0 3.2 l-4.4 0 l0 11.2 l5.2 0 l0 4 l-9.2 0 z"></path>
    </g>
</svg>